<svg id="图层_1" data-name="图层 1" xmlns="http://www.w3.org/2000/svg" viewBox="0 0 1024 1024"><title>ERP-icon</title><path d="M831.52,64A64.56,64.56,0,0,1,896,128.48v767A64.56,64.56,0,0,1,831.52,960h-639A64.56,64.56,0,0,1,128,895.52v-767A64.56,64.56,0,0,1,192.48,64h639m0-64h-639A128.48,128.48,0,0,0,64,128.48v767A128.48,128.48,0,0,0,192.48,1024h639A128.48,128.48,0,0,0,960,895.52v-767A128.48,128.48,0,0,0,831.52,0Z"/><polygon points="832 256 192 256 192 320 832 320 832 256 832 256"/><polygon points="832 448 192 448 192 512 832 512 832 448 832 448"/><polygon points="832 640 192 640 192 704 832 704 832 640 832 640"/></svg>
