<svg id="图层_1" data-name="图层 1" xmlns="http://www.w3.org/2000/svg" viewBox="0 0 1024 1024"><title>ERP-icon</title><style type="text/css">
	.tt0{fill: #c593e8;}
</style>
<path class="tt0" d="M938.7,379.74,719.85,164.21a38.92,38.92,0,0,0-54.63,0l-77.34,76.11L861.28,509.81l77.36-76.19a37.79,37.79,0,0,0,1-52.93c-.32-.34-.66-.67-1-1ZM411,161.71a39.16,39.16,0,0,0-54.77,0L82.78,431.18a37.78,37.78,0,0,0-1,52.93l1,1L465.62,862.32a39.08,39.08,0,0,0,54.71,0l27.31-26.89L356.17,646.7l42-41.23L589.62,794.11l40.13-39.59L438.33,565.88l41.66-41L671.42,713.63l40.38-39.74L520.39,485.2l41.92-41.3L753.73,632.51,793.83,593a37.78,37.78,0,0,0,.93-52.92c-.3-.32-.62-.64-.93-.95Zm131.53,761a74.42,74.42,0,0,1-104.2,0L21.55,512.06a71.9,71.9,0,0,1-1.9-100.73c.62-.66,1.26-1.3,1.9-1.92L334.19,101.3a74.44,74.44,0,0,1,104.17,0l99.73,98.28,99.68-98.28a74.45,74.45,0,0,1,104.22,0L1002.45,358a71.91,71.91,0,0,1,1.9,100.73c-.62.65-1.25,1.29-1.9,1.92l-459.89,462Z"/></svg>