<?xml version="1.0" encoding="utf-8"?>
<!-- Generator: Adobe Illustrator 21.0.0, SVG Export Plug-In . SVG Version: 6.00 Build 0)  -->
<svg version="1.1" id="图层_1" xmlns="http://www.w3.org/2000/svg" xmlns:xlink="http://www.w3.org/1999/xlink" x="0px" y="0px"
	 viewBox="0 0 16 16" style="enable-background:new 0 0 16 16;" xml:space="preserve">
<g>
	<g>
		<path d="M4.8,12.4L3.5,9.7h1.1L5,10.6c0.1,0.3,0.2,0.6,0.3,0.9l0,0c0.1-0.3,0.2-0.6,0.4-0.9L6,9.7h1.1l-1.3,2.7v1.5h-1V12.4z"/>
		<path d="M7.5,9.7h1.1l0.7,1.8c0.1,0.2,0.2,0.5,0.2,0.8l0,0c0.1-0.3,0.2-0.5,0.2-0.8l0.6-1.8h1.1v4.2h-0.9v-1.5
			c0-0.4,0.1-1.1,0.1-1.5l0,0l-0.4,1l-0.6,1.5H9.3L8.7,12l-0.3-1l0,0c0.1,0.4,0.1,1,0.1,1.5V14h-1V9.7z"/>
		<path d="M12.5,9.7h1v3.4h1.6V14h-2.7L12.5,9.7L12.5,9.7z"/>
	</g>
	<path d="M2.3,14.5v-13h5v3.6c0,0.5,0.2,1,0.9,1h3.6V9h1.5l-0.1-5.3L9.6,0H0.8v16h4v-1.5H2.3z M8.8,1.4L12,4.6H8.8V1.4z"/>
</g>
</svg>
