<svg id="图层_1" data-name="图层 1" xmlns="http://www.w3.org/2000/svg" viewBox="0 0 1024 1024"><title>ERP-icon</title><path d="M981.24,712H900.88V542c0-40.23-31.7-73.63-71.51-73.63H541.12V311.22h80.36c22.86,0,42-19,42-43.26V43.28c0-23.53-18.43-43.26-42-43.26H403.26c-22.85,0-42,19-42,43.26V268c0,23.53,18.43,43.26,42,43.26h78.89V469.11h-289c-39.07,0-71.51,32.64-71.51,73.63v170H42c-22.85,0-42,19-42,43.27V980.71C0,1004.25,18.43,1024,42,1024H261c22.85,0,42-19,42-43.27V756c0-23.53-18.43-43.27-42-43.27H181.36V542a12.62,12.62,0,0,1,12.53-12.91h289V711.25H402.53c-22.85,0-42,19-42,43.27V979.19c0,23.53,18.43,43.27,42,43.27h219c22.86,0,42-19,42-43.27V754.52c0-23.53-18.43-43.27-42-43.27H541.12V529.07h289A12.61,12.61,0,0,1,842.65,542V712H763c-22.85,0-42,19-42,43.27V980c0,23.53,18.43,43.26,42,43.26H982c22.85,0,42-19,42-43.26V755.27C1023.26,731,1004.1,712,981.24,712ZM420.22,61.5h184.3V251.26H420.22Zm-176.94,901H59V772.73h184.3Zm360.5,0H419.48V772.73h184.3Zm360.5,0H780V772.73H964.29Z"/></svg>