<svg id="图层_1" data-name="图层 1" xmlns="http://www.w3.org/2000/svg" viewBox="0 0 1024 1024"><title>ERP-icon</title><path d="M322,958.17a55.37,55.37,0,0,1-39.41-16.32L90.15,749.41a55.73,55.73,0,0,1,0-78.82l566-566a55.73,55.73,0,0,1,78.82,0L927.41,297a55.73,55.73,0,0,1,0,78.82l-566,566A55.37,55.37,0,0,1,322,958.17ZM141.25,710,322,890.75,876.31,336.44,695.56,155.69Z"/><rect x="859.78" y="2.29" width="83.44" height="240.42" transform="translate(177.42 673.34) rotate(-45)"/><path d="M270.07,898.9l-169.7,32.73,32.73-169.7L78.46,707.29,28.58,965.94a32,32,0,0,0,37.48,37.48l258.65-49.88Z"/></svg>