<svg id="图层_1" data-name="图层 1" xmlns="http://www.w3.org/2000/svg" viewBox="0 0 1024 1024"><title>ERP-icon</title><path d="M867.17,298.67c-17.29,0-31.3,14.32-31.3,32V917.33c0,23.57-18.68,42.67-41.72,42.67H168.3c-23,0-41.72-19.1-41.72-42.67V106.66C126.59,83.1,145.26,64,168.3,64H742c17.28,0,31.29-14.33,31.29-32S759.28,0,742,0H168.3C110.69,0,64,47.76,64,106.66V917.33C64,976.24,110.69,1024,168.3,1024H794.15c57.61,0,104.31-47.76,104.31-106.67V330.68C898.46,313,884.44,298.67,867.17,298.67Zm-356,22H191.08v64H511.16Zm192.68,256H191.15v64H703.84ZM651.75,446.92,960,43.46,910.68,4.06,602.43,407.53Z"/></svg>