<svg id="图层_1" data-name="图层 1" xmlns="http://www.w3.org/2000/svg" viewBox="0 0 1024 1024"><title>ERP-icon</title><path d="M1006.35,1006.44a59.6,59.6,0,0,1-84.18.31l-.31-.31L774,860.74A474.06,474.06,0,0,1,484.09,961.07C218.28,962.61,1.54,748.71,0,483.33S212.7,1.55,478.51,0,961.05,212.37,962.59,477.76a480,480,0,0,1-101.53,298l144.64,145.05a60,60,0,0,1,1.32,84.94Zm-135-524c-2.83-211.73-177-381.09-389.1-378.26S100.51,280.94,103.33,492.67C106.14,702.4,277.21,871,487.29,871,700.35,868.52,871.67,695.19,871.31,482.45Z"/></svg>