<svg id="图层_1" data-name="图层 1" xmlns="http://www.w3.org/2000/svg" viewBox="0 0 1024 1024"><title>ERP-icon</title><path d="M236.62,734.69a56.05,56.05,0,1,0,55.63,56.05C292.25,759.69,267.43,733.83,236.62,734.69Zm765.92-495.83c-2.57-6-4.28-12.07-6.84-18.11-.86-6.9-4.28-12.93-8.56-18.11-7.7-9.48-18.83-15.52-31.66-15.52a39.6,39.6,0,0,0-19.69,5.17l-15.4,15.52-17.12,17.25-21.4,21.56L750.08,380.28a37.5,37.5,0,0,1-53.06,0l-54.77-55.19a38.2,38.2,0,0,1,0-53.47L774.9,138l14.55-14.66L810,102.62l16.26-16.38a38,38,0,0,0,5.13-19.83,41,41,0,0,0-16.26-32.77,40,40,0,0,0-18.83-7.76,90.62,90.62,0,0,0-16.26-6A357.3,357.3,0,0,0,661.94,0a190.91,190.91,0,0,0-22.25.87C450.57,12.94,300.81,170.74,300.81,365.62a316.1,316.1,0,0,0,3.42,49.15L55.2,664.85c-73.59,75-73.59,195.75,0,269.9l33.38,33.63c73.6,74.16,194.26,74.16,267.86,0l241.33-244a323.38,323.38,0,0,0,64.18,6c190.84,0,347.44-148.32,361.14-337.17.86-8.62.86-18.1.86-27.59A346.2,346.2,0,0,0,1002.54,238.86ZM659.38,640.7a296,296,0,0,1-79.59-11.2c-4.28,7.76-10.27,14.66-16.26,21.56L304.23,912.33c-43.65,44-115.53,44-159.18,0L116,883c-43.65-44.84-43.65-116.41,0-160.39L329,507.9l46.21-46.57a111.66,111.66,0,0,1,19.68-15.52,276.91,276.91,0,0,1-12.83-84.51v-1.72c0-154.35,124.09-278.53,277.27-278.53,18.82,0,37.65,1.72,55.62,6L597.76,204.37c-52.2,52.6-52.2,138.83,0,191.43l30,30.18c52.2,52.61,137.78,52.61,190,0L932.37,310.43a331,331,0,0,1,4.28,50.88C936.64,515.66,812.56,640.7,659.38,640.7Z"/></svg>