<svg id="图层_1" data-name="图层 1" xmlns="http://www.w3.org/2000/svg" viewBox="0 0 1024 1024"><title>ERP-icon</title><path d="M475.44,619h73.13c20.46,0,36.59-15.7,36.59-35.64a35.76,35.76,0,0,0-35.88-35.68H475.44c-20.51,0-36.64,15.7-36.64,35.68S454.94,619,475.44,619Zm0,142.62h73.13c20.46,0,36.59-15.7,36.59-35.68a35.77,35.77,0,0,0-35.92-35.64l-.67,0H475.44c-20.51,0-36.64,15.65-36.64,35.63s16.13,35.62,36.64,35.62ZM877.7,119.9H731.45V84.22a35.84,35.84,0,0,0-36-35.64l-.71,0c-20.49,0-36.54,15.71-36.54,35.63V119.9H365.73V84.22a35.76,35.76,0,0,0-35.92-35.64h-.62c-20.5,0-36.62,15.71-36.62,35.63V119.9H146.3C65.84,119.9,0,184,0,262.48V832.8c0,78.46,65.84,142.62,146.3,142.62H877.7c80.43,0,146.3-64.16,146.3-142.62V262.53c0-78.43-65.87-142.63-146.3-142.63Zm73,712.9c0,39.18-32.83,71.27-73.09,71.27H146.3c-40.25,0-73.13-32.08-73.13-71.27V405.07H950.75V832.8Zm0-499.11H73.21V262.48c0-39.23,32.88-71.3,73.13-71.3H292.6v35.68c0,19.93,16.12,35.63,36.63,35.63s36.54-15.7,36.54-35.63V191.18H658.33v35.68c0,19.93,16.08,35.63,36.54,35.63s36.63-15.7,36.63-35.63V191.18H877.75c40.26,0,73.13,32.08,73.13,71.3v71.27ZM256,761.53h73.17c20.46,0,36.54-15.65,36.54-35.62a35.76,35.76,0,0,0-35.92-35.64l-.62,0H256c-20.5,0-36.59,15.65-36.59,35.63S235.51,761.53,256,761.53ZM694.82,618.9H768c20.46,0,36.55-15.66,36.55-35.58a35.76,35.76,0,0,0-35.88-35.68H694.82c-20.46,0-36.54,15.7-36.54,35.68S674.37,619,694.82,619ZM256,618.9h73.17c20.46,0,36.54-15.66,36.54-35.58a35.78,35.78,0,0,0-35.88-35.68H256c-20.5,0-36.59,15.7-36.59,35.68S235.51,619,256,619ZM694.82,761.53H768c20.46,0,36.55-15.65,36.55-35.62a35.77,35.77,0,0,0-35.93-35.64l-.62,0H694.82c-20.46,0-36.54,15.65-36.54,35.63S674.37,761.53,694.82,761.53Z"/></svg>