<svg id="图层_1" data-name="图层 1" xmlns="http://www.w3.org/2000/svg" viewBox="0 0 1024 1024"><title>ERP-icon</title><path d="M987.67,773H36.33C16.27,773,0,788.87,0,808.4s16.27,35.38,36.33,35.38H192l-70.55,91.6a34.78,34.78,0,0,0,7.27,49.53,37,37,0,0,0,50.87-7.08L282.82,843.78H741.18L844.43,977.83a37,37,0,0,0,50.87,7.08,34.77,34.77,0,0,0,7.27-49.53L832,843.78H987.67c20.06,0,36.33-15.84,36.33-35.37S1007.73,773,987.67,773ZM74.39,732.63H949.62c20.06,0,36.33-15.84,36.33-35.37V67.39c0-19.53-16.27-35.37-36.33-35.37H74.39C54.32,32,38.05,47.86,38.05,67.39V697.25C38.05,716.79,54.32,732.63,74.39,732.63Zm36.33-629.85H913.28v559.1H110.72ZM708.93,264.68a37,37,0,0,0-53.28,2L452.87,497l-86.42-84.13a37,37,0,0,0-51.38,0L200.91,524a34.73,34.73,0,0,0,0,50,37,37,0,0,0,51.39,0l88.47-86.13,88.47,86.13a37,37,0,0,0,53.28-2L685.29,341.73l86.42,84.13a37,37,0,0,0,51.39,0,34.71,34.71,0,0,0,0-50Z"/></svg>