<svg xmlns="http://www.w3.org/2000/svg" width="86" height="27" viewBox="0 0 86 27">
  <metadata><?xpacket begin="﻿" id="W5M0MpCehiHzreSzNTczkc9d"?>
<x:xmpmeta xmlns:x="adobe:ns:meta/" x:xmptk="Adobe XMP Core 5.6-c138 79.159824, 2016/09/14-01:09:01        ">
   <rdf:RDF xmlns:rdf="http://www.w3.org/1999/02/22-rdf-syntax-ns#">
      <rdf:Description rdf:about=""/>
   </rdf:RDF>
</x:xmpmeta>
                                                                                                    
                                                                                                    
                                                                                                    
                                                                                                    
                                                                                                    
                                                                                                    
                                                                                                    
                                                                                                    
                                                                                                    
                                                                                                    
                                                                                                    
                                                                                                    
                                                                                                    
                                                                                                    
                                                                                                    
                                                                                                    
                                                                                                    
                                                                                                    
                                                                                                    
                                                                                                    
                           
<?xpacket end="w"?></metadata>
<defs>
    <style>
      .cls-1 {
        fill: #6281e7;
        fill-rule: evenodd;
      }
    </style>
  </defs>
  <path id="ERP" class="cls-1" d="M31.476,36.553l2.181-4.41H43.691l2.963-5.992H36.619l1.936-3.916H50.967l3.08-6.229H33.353L20.007,43H40.7l3.188-6.447H31.476Zm37.893-5.32a15.928,15.928,0,0,0,5.469-3.154,14.828,14.828,0,0,0,3.006-4.123q1.77-3.579.221-5.764t-6.3-2.185H57.392L44.046,43h8.443l5.1-10.323h2.662L59.168,43h9.36ZM63,21.741h3.889q3.244,0,1.963,2.591a4.181,4.181,0,0,1-1.916,1.918,6.292,6.292,0,0,1-2.882.653H60.448Zm27.707,11.45a16.074,16.074,0,0,0,8.488-2.373,14.967,14.967,0,0,0,5.821-6.229,7.588,7.588,0,0,0,.918-4.568A4.027,4.027,0,0,0,103.8,17q-1.8-.988-6.19-0.989H85.864L72.518,43h8.564l4.85-9.809h4.776Zm0.55-11.015h3.1q3.446,0,2.194,2.531Q95.224,27.4,91.5,27.4H88.675Z" transform="translate(-20 -16)"/>
</svg>
