<svg id="图层_1" data-name="图层 1" xmlns="http://www.w3.org/2000/svg" viewBox="0 0 1024 1024"><title>ERP-icon</title><path d="M653.67,469.16C771.33,390.87,803.28,232,725,114.26S488-35.43,370.33,42.85,220.73,280,299,397.76a255.66,255.66,0,0,0,71.37,71.4A412.72,412.72,0,0,0,64,853.13C64.6,967.68,288.46,1024,512.32,1024S960,967.68,960,855.06A412.74,412.74,0,0,0,653.67,469.16ZM568,803.22l-55.65,55-55.64-55.68,55.64-186.23ZM320.43,256.06c0-106,85.91-192,191.88-192s191.88,86,191.88,192S618.3,448,512.32,448s-191.88-86-191.88-192ZM512.32,960c-234.09,0-383.76-64-383.76-104.94,9.18-187.24,160.08-336.26,347.31-343L390.16,803.22a32,32,0,0,0,8.31,32l91.46,91.52a32,32,0,0,0,45.23.18l.19-.18L626.81,832a32,32,0,0,0,8.31-32L548.77,512C736,518.8,886.9,667.82,896.08,855.06,896.08,896,746.42,960,512.32,960Z"/></svg>