<svg id="图层_1" data-name="图层 1" xmlns="http://www.w3.org/2000/svg" viewBox="0 0 1024 1024"><title>ERP-icon</title>
  <defs>
    <style>
      .cls-1 {
        fill: #6281e7;
      }
    </style>
  </defs>
<path d="M96,96a96,96,0,1,0,96,96A96,96,0,0,0,96,96Zm0,128a32,32,0,1,1,32-32A32,32,0,0,1,96,224Zm256,64H928a96,96,0,0,0,0-192H352a96,96,0,0,0,0,192Zm0-128H928a32,32,0,1,1,0,64H352a32,32,0,1,1,0-64ZM96,416a96,96,0,1,0,96,96A96,96,0,0,0,96,416Zm0,128a32,32,0,1,1,32-32A32,32,0,0,1,96,544ZM928,416H352a96,96,0,0,0,0,192H928a96,96,0,0,0,0-192Zm0,128H352a32,32,0,0,1,0-64H928a32,32,0,0,1,0,64ZM96,736a96,96,0,1,0,96,96A96,96,0,0,0,96,736Zm0,128a32,32,0,1,1,32-32A32,32,0,0,1,96,864ZM928,736H352a96,96,0,0,0,0,192H928a96,96,0,0,0,0-192Zm0,128H352a32,32,0,0,1,0-64H928a32,32,0,0,1,0,64Z"  class="cls-1"/></svg>
